<svg width="240px" height="240px" viewBox="-102.4 -102.4 1228.80 1228.80" class="icon" version="1.1" xmlns="http://www.w3.org/2000/svg" fill="#db0000" stroke="#db0000" stroke-width="0.01024" transform="matrix(-1, 0, 0, 1, 0, 0)rotate(90)"><g id="SVGRepo_bgCarrier" stroke-width="0" transform="translate(0,0), scale(1)"><path transform="translate(-102.4, -102.4), scale(38.4)" d="M16,29.708190567791462C17.797223027988974,30.42846091999627,20.177551857072803,29.954775839087525,21.656936817168095,28.705688119012216C23.213752813107092,27.39122312484399,22.706801940636375,24.75627854772842,23.856898281486178,23.074382988286903C24.821092671791337,21.664349579873114,26.873884418295724,21.287562525763047,27.737363349527232,19.81370053410364C28.63414136866225,18.283000722501235,29.454306057636998,16.300397783503108,28.789009282524702,14.655820959554605C28.07162311135918,12.882482030140988,24.857800418217018,13.04714588680421,24.26434070018265,11.228580672074768C23.444681059314064,8.716860894802679,26.365230564737956,5.771034937098959,25.127810777128424,3.436646272878505C24.125209643979026,1.5452422858129053,21.222165055516452,1.649138775573069,19.089315788722974,1.465911922686752C17.057060139544507,1.2913267737703362,14.875568082104174,1.3825869055619306,13.110132559528722,2.4042426271573696C11.395810022893127,3.3963193163466285,11.167118021233803,5.988219150002561,9.480421061994534,7.026569420644618C7.600571444878194,8.183826714556785,3.865398739656993,6.484165126273341,3.112083502617123,8.559157940942569C2.2696559199026596,10.879609054981513,6.739129943901756,12.546496538653482,6.582030786185417,15.010131548026326C6.4345565605456105,17.32282800386855,2.336298484409888,18.116247312185376,2.354885471732434,20.433566467587912C2.3707257493553056,22.40844158453879,4.8605563968836485,23.592575350927213,6.657442852916443,24.412076239317713C8.318499379016284,25.16962955841336,10.467954160372322,23.957675612085524,12.056163907458856,24.858000894098105C13.888932784670317,25.89696200063096,14.044431343419784,28.924460277727345,16,29.708190567791462" fill="#0c4205" strokewidth="0"></path></g><g id="SVGRepo_tracerCarrier" stroke-linecap="round" stroke-linejoin="round" stroke="#CCCCCC" stroke-width="8.192"></g><g id="SVGRepo_iconCarrier"><path d="M877.387 523.945c-1.663 198.958-163.571 360.868-362.532 362.531-198.991 1.661-360.885-166.07-362.526-362.531-0.697-83.354-130.015-83.42-129.318 0 1.064 127.401 49.851 247.752 136.97 340.531 86.427 92.047 208.144 143.457 333.116 150.77 127.267 7.454 251.374-40.885 347.279-122.774 96.086-82.04 150.659-201.304 164.166-325.296 1.565-14.352 2.04-28.805 2.16-43.23 0.697-83.421-128.618-83.355-129.315-0.001z" fill="#96F207"></path><path d="M152.329 500.646c1.662-198.965 163.563-360.875 362.526-362.537 83.354-0.697 83.419-130.013 0-129.317-129.524 1.081-252.396 51.567-345.385 141.68C75.465 241.564 24.097 370.538 23.011 500.646c-0.697 83.421 128.62 83.349 129.318 0z" fill="#31D10D"></path><path d="M400.998 617.112c-54.167-72.265-46.168-154.096 21.221-212.268 63.03-54.412 156.255-33.802 209.578 32.46 22.13 27.497 68.54 22.901 91.441 0 26.914-26.917 22.073-64.009 0-91.44-89.215-110.859-259.653-132.629-373.618-47.204-118.817 89.062-151.202 262.422-60.284 383.718 21.095 28.142 55.432 42.548 88.465 23.196 27.799-16.282 44.387-60.192 23.197-88.462z" fill="#96F207"></path><path d="M628.723 433.281c30.673 40.924 38.604 71.548 34.179 119.265 0.715-5.845 0.408-4.79-0.924 3.173-1.3 6.769-3.259 13.386-5.207 19.983-4.113 13.896-2.982 9.9-9.75 22.736-11.978 22.716-23.474 34.203-45.271 51.746-27.499 22.131-22.904 68.538 0 91.441 26.914 26.913 64.011 22.075 91.439 0 110.85-89.224 132.613-259.649 47.193-373.614-21.092-28.142-55.431-42.546-88.466-23.196-27.799 16.287-44.384 60.193-23.193 88.466z" fill="#31D10D"></path></g></svg>